<?xml version="1.0" standalone="no"?>
<!DOCTYPE svg PUBLIC "-//W3C//DTD SVG 20010904//EN"
 "http://www.w3.org/TR/2001/REC-SVG-20010904/DTD/svg10.dtd">
<svg version="1.0" xmlns="http://www.w3.org/2000/svg"
 width="85.000000pt" height="85.000000pt" viewBox="0 0 85.000000 85.000000"
 preserveAspectRatio="xMidYMid meet">
<metadata>
Created by potrace 1.13, written by Peter Selinger 2001-2015
</metadata>
<g transform="translate(0.000000,85.000000) scale(0.100000,-0.100000)"
fill="#000000" stroke="none">
<path d="M146 677 c-14 -11 -21 -39 -32 -131 -7 -65 -19 -125 -25 -132 -8 -10
-8 -22 0 -45 6 -18 11 -57 11 -88 0 -31 4 -62 8 -69 12 -18 40 -4 57 29 19 35
19 40 0 33 -12 -5 -15 4 -15 49 0 55 0 55 43 74 43 20 137 38 137 26 0 -4 -6
-43 -14 -87 -22 -123 -26 -175 -16 -181 13 -8 19 7 50 123 36 140 58 249 66
342 l7 74 -24 -15 c-29 -19 -37 -42 -45 -132 -3 -37 -12 -73 -19 -81 -8 -8
-40 -13 -84 -14 -38 -1 -76 -3 -83 -4 -7 -2 -12 2 -11 7 9 54 26 185 27 204 1
29 -13 36 -38 18z"/>
<path d="M633 676 c-48 -22 -122 -95 -148 -146 -43 -87 -54 -183 -27 -251 25
-62 107 -99 180 -80 44 12 132 66 132 81 0 15 -13 12 -61 -14 -65 -36 -98 -40
-136 -17 -42 26 -63 69 -64 129 -3 134 71 252 158 252 46 0 61 -24 40 -63 -34
-66 -49 -167 -24 -167 39 1 68 67 74 175 5 65 3 83 -10 93 -24 20 -79 24 -114
8z"/>
</g>
</svg>
